<svg width="23" height="23" viewBox="0 0 23 23" fill="none" xmlns="http://www.w3.org/2000/svg">
<path d="M20.3968 7.93076L14.6939 7.10195L12.1446 1.93369C12.075 1.79218 11.9604 1.67763 11.8189 1.608C11.464 1.43281 11.0328 1.5788 10.8553 1.93369L8.30603 7.10195L2.6032 7.93076C2.44597 7.95322 2.30222 8.02734 2.19216 8.13964C2.05911 8.2764 1.98579 8.46039 1.98831 8.65117C1.99084 8.84196 2.06901 9.02394 2.20564 9.15712L6.33171 13.1799L5.35691 18.8602C5.33405 18.9924 5.34867 19.1283 5.39912 19.2525C5.44956 19.3768 5.53381 19.4844 5.64232 19.5632C5.75082 19.642 5.87923 19.6889 6.01299 19.6984C6.14675 19.7079 6.28051 19.6798 6.39909 19.6172L11.5 16.9353L16.6009 19.6172C16.7401 19.6913 16.9018 19.716 17.0568 19.6891C17.4476 19.6217 17.7104 19.2511 17.643 18.8602L16.6682 13.1799L20.7943 9.15712C20.9066 9.04707 20.9807 8.90332 21.0032 8.74609C21.0638 8.35302 20.7898 7.98916 20.3968 7.93076Z" fill="#FDA202"/>
</svg>
